<?xml version="1.0" encoding="utf-8"?>
<!-- Generator: Adobe Illustrator 24.3.0, SVG Export Plug-In . SVG Version: 6.00 Build 0)  -->
<svg version="1.1" xmlns="http://www.w3.org/2000/svg" xmlns:xlink="http://www.w3.org/1999/xlink" x="0px" y="0px"
	 viewBox="0 0 600 600" enable-background="new 0 0 600 600" xml:space="preserve">
<g id="Layer_1" display="none">
	<g display="inline" opacity="0.17">
		<g>
			<path fill="#FFFFFF" d="M551.99,222.21c0,67.12,0,134.23,0,201.37c-167.97,0-335.93,0-503.97,0c0-100.49,0-201,0-301.62
				c167.94,0,335.96,0,503.97,0c0,29.2,0,58.49,0,87.79c-0.33,0.24-0.66,0.24-0.99,0c-2.32-3.95-3.64-8.45-6.6-12.07
				c-1.24-1.52-2.33-3.15-3.83-4.44c-0.8-0.68-1.66-1.4-2.79-0.89c-1.09,0.49-1.23,1.59-1.35,2.63c-0.1,0.92-0.11,1.84-0.07,2.76
				c0.51,12.82-4.96,23.12-13.32,32.32c-13.54,14.91-30.38,25.23-47.53,35.36c-14.81,8.75-30.04,16.64-45.46,24.17
				c-28.73,14.03-58.32,26.03-88.55,36.5c-15.25,5.28-30.58,10.33-45.99,15.14c-10.88,3.4-21.89,6.39-32.87,9.47
				c-11.76,3.3-23.66,6-35.51,8.91c-9.27,2.27-18.63,4.21-28.01,6.02c-1.41,0.02-2.76,0.2-3.9,1.15c-6.19,2.37-12.8,2.94-19.21,4.29
				c-10.48,2.21-21.05,4.03-31.61,5.85c-9.18,1.58-18.47,2.58-27.77,3.47c-9.84,0.95-19.55,0.26-29.31-0.77
				c-3.69-0.39-7.3-1.16-10.83-2.24c-4.64-1.42-6.02-4.34-4.75-9.11c1.37-5.17,4.21-9.45,7.77-13.31c2.27-2.46,4.46-4.99,6.6-7.56
				c3.25-3.91,2.89-8.74-0.66-12.52c-3.21-3.41-9.61-4.5-12.91-1.61c-9.11,7.96-17.42,16.75-20.87,28.72
				c-5.06,17.53,2.44,29.87,19.09,35.27c6.65,2.15,13.66,3.28,20.78,3.18c4.49-0.06,8.94,0.79,13.46,0.71
				c13.97-0.24,27.83-1.59,41.62-3.8c14-2.24,27.93-4.92,41.83-7.69c11.5-2.29,22.99-4.76,34.44-7.32
				c10.34-2.31,20.65-4.74,30.89-7.38c14.6-3.76,29.18-7.59,43.45-12.59c13.59-4.77,27.46-8.74,41.14-13.28
				c25.64-8.52,50.82-18.2,75.49-29.2c28.78-12.83,56.93-26.91,84.04-43.02c14.58-8.66,27.5-19.44,38.97-31.85
				c5.48-5.93,10.09-12.61,12.75-20.41c0.3-0.88,0.61-1.74,1.33-2.39C551.29,221.99,551.64,221.98,551.99,222.21z"/>
			<path fill="#7D7A7A" d="M551.33,209.72c0.22,0.03,0.44,0.04,0.66,0.04c0,4.15,0,8.3,0,12.46c-0.23,0-0.45,0.01-0.68,0.01
				C549.44,218.05,549.41,213.88,551.33,209.72z"/>
			<path fill="#010101" d="M130.95,298.54c0-14.41-0.17-28.83,0.04-43.24c0.32-22.27,10.28-38.99,29.64-50.04
				c18.01-10.28,37.09-17.71,57.2-22.96c11.09-2.89,22.26-5.36,33.49-7.37c10.16-1.82,20.59-2.2,30.83-3.51
				c10.19-1.3,20.33-2.28,30.55-1.86c13.75,0.56,27.35,2.65,40.99,4.38c11.09,1.41,21.94,3.84,32.63,6.83
				c20.39,5.69,39.77,13.86,57.77,25.12c1.52,0.95,3.03,2.77,4.92,1.68c1.74-1,0.93-3.17,0.94-4.82
				c0.06-12.92-0.04-25.84,0.11-38.75c0.04-3.45-1-6.14-3.17-8.8c-8.89-10.87-6.1-24.9,6.5-31.03c8.31-4.05,17.97-2.3,24.88,6.49
				c5.04,6.4,4.89,17.47-1.02,23.67c-2.82,2.96-3.69,5.98-3.68,9.89c0.12,28.14,0.01,56.29,0.14,84.43c0.02,3.75-1.45,5.87-4.56,7.7
				c-33.1,19.49-67.99,35.22-103.66,49.26c-39.13,15.4-79.17,27.99-120.01,38.01c-18.19,4.46-36.42,8.7-54.79,12.38
				c-13.85,2.78-27.66,5.71-41.64,7.77c-2.05,0.3-3.9,1.84-5.95,2.28c-5.74,1.22-8.43-1.8-10.11-8.92
				c-3.83-16.19-1.87-32.59-2.41-48.9c-0.11-3.23-0.02-6.46-0.02-9.69C130.7,298.54,130.82,298.54,130.95,298.54z"/>
			<path fill="#010101" d="M471.73,327.16c0,7.95,0.59,15.95-0.14,23.83c-1.07,11.54-6.03,21.63-14.03,30.07
				c-13.29,14-27.36,27.14-44.64,36.13c-12.99,6.76-26.58,6.2-40.12,1.42c-12.57-4.44-24.62-10.28-37.74-13.3
				c-19.26-4.43-38.48-5-57.99-1.85c-14.48,2.34-27.89,7.88-41.52,12.78c-10.96,3.94-22.12,6.8-33.71,5.16
				c-10.26-1.44-18.96-6.9-26.71-13.64c-1.94-1.69-2.02-3.69,1.24-4.36c13.58-2.79,27.22-5.3,40.71-8.47
				c20.23-4.75,40.39-9.76,60.49-15.04c14.03-3.69,28.17-7.26,41.77-12.23c19.84-7.25,39.96-13.7,59.61-21.51
				c26.12-10.39,51.78-21.76,77.09-33.94c3.42-1.65,6.74-3.52,10.14-5.22c4.3-2.16,6.03-1.13,6.04,3.55c0.02,5.53,0,11.07,0,16.6
				C472.06,327.16,471.9,327.16,471.73,327.16z"/>
			<path fill="#010101" d="M551.33,209.72c-0.01,4.17-0.01,8.34-0.02,12.5c-2.5,10.5-8.94,18.66-16.12,26.2
				c-17.45,18.33-38.74,31.22-60.89,43.03c-42.49,22.67-86.4,42.02-132.01,57.47c-15.68,5.31-31.77,9.47-47.3,15.16
				c-10.85,3.98-21.97,6.9-33.04,9.88c-12.48,3.35-25.1,6.3-37.74,9.12c-14.02,3.13-28.04,6.19-42.15,8.83
				c-21.28,3.99-42.46,8.47-64.19,9.75c-14.83,0.87-29.46,0.3-44.04-2.41c-20.32-3.78-30.19-22.56-21.83-41.42
				c4.4-9.93,11.31-17.87,19.23-25.04c3.78-3.42,11.03-2.8,14.76,0.99c4.38,4.46,4.74,10.5,0.67,14.89
				c-3.92,4.23-7.91,8.37-11.13,13.2c-1.71,2.56-2.47,5.45-3.34,8.28c-0.99,3.2,1.1,4.99,3.81,6.01c4.02,1.51,8.28,1.93,12.5,2.58
				c18.53,2.86,36.8,0.19,54.98-2.74c17.39-2.81,34.63-6.55,51.94-9.88c1-1.04,2.59-0.3,3.63-1.22c13.54-3.1,27.12-6.01,40.6-9.34
				c12.11-3,24.09-6.51,36.15-9.71c14.1-3.74,27.95-8.26,41.83-12.72c23.8-7.65,47.27-16.18,70.39-25.68
				c26.97-11.08,53.33-23.48,78.63-37.93c19.21-10.98,38.67-21.75,54.11-38.26c9.65-10.32,15.63-21.8,14.99-36.22
				c-0.07-1.55-0.5-3.45,1.49-4.19c1.8-0.67,3.06,0.59,4.19,1.75C546.14,197.47,549.74,203.02,551.33,209.72z"/>
			<path fill="#010101" d="M114.49,296.6c0,15.8,0.01,31.59-0.02,47.39c0,1.3,0.51,3.03-1.22,3.6c-1.57,0.52-2.52-0.82-3.42-1.85
				c-12.6-14.49-19.1-30.95-17.87-50.52c1.12-17.81,8.54-32.89,18.12-47.29c0.76-1.14,1.64-2.59,3.25-2.02
				c1.67,0.59,1.14,2.35,1.14,3.65C114.5,265.24,114.49,280.92,114.49,296.6z"/>
			<path fill="#020202" d="M508.44,300.76c1.31,16.79-5.74,30.94-16.03,43.87c-1.31,1.65-2.73,4.07-5.22,3.18
				c-2.5-0.9-1.47-3.6-1.48-5.53c-0.07-13.58,0.06-27.17-0.11-40.75c-0.04-3.48,1.3-5.6,4.19-7.21c4.52-2.52,8.92-5.25,13.44-7.78
				c3.08-1.73,5.15-1.15,5.2,2.82C508.48,293.03,508.44,296.71,508.44,300.76z"/>
			<path fill="#020202" d="M527.18,187.54c-0.2,1.43,0.9,3.54-1.08,4.52c-2.01,0.99-3.37-0.8-4.85-1.84
				c-3.6-2.52-6.5-5.39-6.77-10.21c-0.06-1.04-1.22-2.24-2.18-2.96c-7.07-5.36-10.69-13.05-14.19-20.82
				c-0.63-1.41-1.35-3.08-0.07-4.56c1.43-1.65,3.34-1.39,5.14-0.87c8.19,2.37,15.03,6.88,20.63,13.27c1.07,1.22,2.02,2.94,3.68,2.91
				c5.84-0.09,7.66,4.74,10.58,8.22c0.9,1.07,1.68,2.33,0.84,3.78c-0.92,1.59-2.46,1.43-3.99,1.25
				C528.66,179.51,527.05,180.99,527.18,187.54z"/>
			<path fill="#AEABAB" d="M199.02,364.9c-0.65,2.06-2.29,1.2-3.63,1.22C196.05,364.08,197.66,364.87,199.02,364.9z"/>
			<path fill="#FFFFFF" d="M419.45,225.33c-4.68-0.81-8.83-1.03-12.63-2.3c-6.09-2.05-12.5-2.47-18.67-3.17
				c-23.48-2.65-47.01-3.8-70.69-0.97c-11.75,1.4-23.56,2.61-35.12,4.94c-17.71,3.56-35.12,8.39-50.32,18.92
				c-5.49,3.8-9.47,9.09-14.34,13.49c-5.67,5.11-14.36,6.3-21.35,2.91c-6.7-3.25-10.42-9.67-9.91-17.52
				c0.46-7.06,5.3-11.48,10.42-15.19c14.35-10.39,30.48-16.96,47.5-21.73c26.18-7.34,52.9-9.14,79.79-7.27
				c31.7,2.21,62.37,9.16,90.84,23.96C416.44,222.15,418.23,222.61,419.45,225.33z"/>
			<path fill="#FFFFFF" d="M170,270.3c1.89,1.24,2.57,1.49,2.96,1.98c6.3,7.98,14.19,13.35,24.36,15.11
				c1.91,0.33,2.74,1.76,1.37,3.25c-7.06,7.68-8.82,16.92-8.29,26.91c0.03,0.63-0.34,1.27-0.75,2.7c-4.74-3.63-8.07-8.21-12.8-11.14
				c-4.85-3-10.05-4.85-16.88-5.7C168.58,293.82,171.36,283.13,170,270.3z"/>
		</g>
	</g>
</g>
<g id="Layer_2">
	<g>
		<path stroke="#000000" stroke-miterlimit="10" d="M114.45,246.7c-0.03,66.54-0.03,98.14,0,98.64c0,0.02,0.02,0.25,0,0.55
			c-0.02,0.31-0.04,0.67-0.17,0.95c-0.31,0.66-1.22,0.82-1.3,0.83c-0.77,0.12-1.45-0.27-1.89-0.57c-3.56-2.48-8.74-11.3-8.74-11.3
			c-1.9-3.23-1.69-2.85-1.88-3.19c0,0-3.32-5.97-5.36-12c-1.69-5.01-3.7-13.98-3.19-24.73c0,0,0.7-14.85,8.94-32.14
			c3.81-8,9.17-15.35,9.86-16.6c0.03-0.06,0.17-0.32,0.44-0.61c0.16-0.17,0.4-0.43,0.77-0.59c0.6-0.26,1.18-0.11,1.36-0.06
			C113.95,246.08,114.32,246.54,114.45,246.7z"/>
		<path stroke="#000000" stroke-miterlimit="10" d="M550.4,205.86c-1.08-3.09-2.32-5.16-3.47-7.06c0,0-2.74-4.54-6.7-7.32
			c-0.37-0.26-0.71-0.4-1.02-0.47c0,0-0.85-0.19-1.77,0.15c-1.87,0.7,0.11,12.54-2.74,22.11c-1.09,3.66-2.6,5.96-5.62,10.55
			c-4.83,7.37-9.98,12.15-13.96,15.66c-5.59,4.92-14.99,13.21-25.7,19.74c-50.55,30.84-124.77,58.21-124.77,58.21
			c-17.97,6.6-56.23,20.23-105.36,33.95c-25.01,6.98-40.59,10.56-62.49,15.6c-20.3,4.67-42.31,9.34-70.11,12.06
			c0,0-52.64,5.16-54.49-5.12c-0.39-2.18,0.09-4.8,0.09-4.8c0.53-2.3,1.35-3.96,1.72-4.72c1.35-2.77,2.89-4.65,5.78-8.11
			c2.42-2.9,4.44-5.14,4.44-5.14c2.53-2.81,3.36-3.52,4.09-5.23c1.04-2.44,0.91-4.66,0.83-5.46c-0.37-3.79-2.6-6.25-3.38-7.03
			c-0.87-0.73-2.7-2.07-5.36-2.55c-0.41-0.08-4.24-0.72-7.83,1.36c-0.12,0.07-0.27,0.16-0.47,0.29
			c-5.57,3.6-11.94,12.44-11.94,12.44c-3.17,4.4-4.75,6.6-6.32,9.7c-1.53,3.04-3.17,6.27-4.02,10.91c-0.45,2.44-1.63,9.32,1.34,16.4
			c0.17,0.4,0.8,1.89,1.91,3.7c0.84,1.37,2.99,4.62,6.7,7.6c3.04,2.43,6.13,3.88,9.06,4.91c16.44,5.82,43.35,4.2,48,3.89
			c9.74-0.64,15.38-1.34,15.38-1.34c44.95-5.59,89.62-16.6,89.62-16.6c27.55-6.79,57.13-14.07,97.53-27.32
			c53.21-17.45,85.65-32.27,142.98-58.47c0,0,18.58-8.49,47.49-27.57c0,0,14.84-9.8,29.96-26.55c2.12-2.35,6.37-7.3,9.53-14.64
			c0.9-2.08,1.85-4.34,2.45-7.54C552.05,220.66,553.19,213.86,550.4,205.86z"/>
		<path stroke="#000000" stroke-miterlimit="10" d="M471.14,307.27c-1.21-0.59-2.53-0.23-12.69,5.24c-0.66,0.35-1.32,0.69-1.99,1.03
			c-1.11,0.55-2.92,1.45-5.16,2.55c-39.86,19.55-74.38,33.08-90.91,39.03c-57.35,20.64-169.91,47.78-182.25,49.2
			c-0.79,0.09-3.91,0.39-4.28,1.81c-0.15,0.57-0.03,2.02,7.32,6.47c6.71,4.06,11.29,6.83,18.21,8.51
			c7.51,1.82,14.72,1.63,24.17-0.17c16.27-3.09,19.73-7.62,36.46-12.84c3.63-1.13,16.31-4.92,32.48-5.93
			c22.56-1.41,40.06,3.34,44.04,4.47c21.84,6.2,23.91,13.39,42.77,15.57c4.56,0.53,14.71,1.55,27.06-1.53
			c19.73-4.93,31.96-17.74,44.94-31.15c1.98-2.05,7.38-8.01,12.65-16.68c3.57-5.87,4.81-9.28,5.14-10.22
			c0.82-2.32,1.77-5.64,2.64-15.91c0.43-5.01,0.57-9.93,0.85-19.57C472.94,314.54,473.08,308.21,471.14,307.27z"/>
		<path stroke="#000000" stroke-miterlimit="10" d="M485.64,302.96c0.01-0.66-0.15-2.41,0.77-4.21c0.88-1.73,2.17-2.48,4.47-3.96
			c4.86-3.12,4.67-3.38,9.57-6.26c3.37-1.98,4.69-2.58,5.87-2.04c1.23,0.56,1.7,2.06,1.91,2.94c2.91,11.65-0.38,24.26-0.38,24.26
			c-0.75,3.16-4.06,16.35-13.79,28.34c-1.67,2.06-5.37,6.56-7.15,5.74c-1.28-0.59-0.97-3.68-0.81-5.85
			C487.07,328.96,485.54,315.94,485.64,302.96z"/>
		<path d="M473.66,158.85c-1.49-1.89-6.19,0.7-12.4,0.51c-2.35-0.07-3.98-0.37-7.65-0.24c-1.19,0.04-2.49,0.13-3.93,0.31
			c0,0,0,0,0,0c0,0,0.67,39.79,0.55,46.34c-0.01,0.41-0.01,1.71-0.81,2.21c-1.27,0.8-3.66-0.86-4.17-1.19
			c-53.71-35.34-134.39-35.34-134.39-35.34c0,0,0,0,0,0c-70.97,0-153.87,16.43-173.1,56.36c-1.66,3.45-3.25,7.9-3.42,8.39
			c-6.55,18.49-4.13,29.64-4.34,53.13c-0.27,30.41,0.21,40.96,1.29,62.06c0.15,2.85,0.57,9.47,4.94,12.26
			c2.54,1.62,5.42,1.33,6.83,1.17c7.82-0.9,22.83-3.19,42.19-6.7c20.96-4.6,47.72-10.97,76.55-19.16
			c18.84-5.36,34.36-10.3,36.85-11.09c11.33-3.62,20.79-6.83,31.11-10.34c11.91-4.05,21.2-7.3,23.27-8.03
			c29.09-10.25,75.22-30.93,87.71-36.57c26.05-11.49,32.46-16.94,32.51-19.74c0.01-0.29,0.17-6.43,0.17-10.94
			c0,0,0.05-3.45,0.09-7.19c0.2-19.18,0.26-40.98,0.26-40.98c0-10.34,0-20.68,0-31.02c0-0.93,0.02-1.4,0.02-1.42
			C474.26,160.02,473.98,159.25,473.66,158.85z M199.98,281.96c-3.4,3.19-9.56,17.51-8.33,28.42c0.12,1.06,0.46,3.42-0.19,3.66
			c-0.69,0.25-2.08-2.1-2.89-3.32c-5.8-8.64-19.41-14.32-25.36-14.55c-0.58-0.02-2.66-0.05-2.89-0.85
			c-0.21-0.71,1.15-1.67,1.53-1.96c3.88-2.91,10.07-13.52,9.87-23.49c-0.09-4.29-1.35-7.87-0.51-8.17c0.63-0.23,1.74,1.63,2.75,3.05
			c6.84,9.67,20.08,15.33,24.83,14.99c0.4-0.03,2.04-0.19,2.3,0.43C201.33,280.75,200.25,281.71,199.98,281.96z M419.13,226.6
			c-6.71-2.22-46.79-11.83-92.6-8.17c-19.17,1.53-81.84,6.54-101.96,30.4c0,0-11.51,13.65-22.43,13.86
			c-6.04,0.12-9.88-2.74-9.88-2.74c-1.08-0.8-1.85-1.64-2.35-2.25c-0.7-0.86-1.62-2.15-2.39-3.88c0,0-2.46-5.58-0.66-13.18
			c3.99-16.78,38.55-29.87,38.55-29.87c16.85-6.39,37.02-11.26,65.87-12.77c0,0,57.11-2.97,102.13,13.79
			c3.74,1.39,11.59,4.72,20.18,9.31c1.72,0.92,10.83,5.78,10.46,6.58C423.83,228.2,419.82,226.83,419.13,226.6z"/>
		<circle stroke="#000000" stroke-width="1.1901" stroke-miterlimit="10" cx="461.34" cy="143.43" r="20.05"/>
		<path stroke="#000000" stroke-miterlimit="10" d="M455.13,333.85"/>
		<g id="XMLID_3_">
			<g>
				<path d="M526.01,173.17l4.28,4.2c0.82-0.17,1.92-0.3,3.27-0.14c3.07,0.33,5.61,1.82,6.83,2.63l0.36-0.37
					c-1.21-1.48-2.57-3.04-4.07-4.67c-2.26-2.42-2.59-2.95-3.25-3.32C530.78,169.99,527.64,171.93,526.01,173.17z"/>
			</g>
			<g>
				
					<line fill="none" stroke="#000000" stroke-width="0.0787" stroke-miterlimit="10" x1="530.29" y1="177.37" x2="530.36" y2="177.44"/>
				<path fill="none" stroke="#000000" stroke-width="0.0787" stroke-miterlimit="10" d="M530.29,177.37
					c0.82-0.17,1.92-0.3,3.27-0.14c3.07,0.33,5.61,1.82,6.83,2.63l0.36-0.37c-1.21-1.48-2.57-3.04-4.07-4.67
					c-2.26-2.42-2.59-2.95-3.25-3.32c-2.66-1.51-5.8,0.43-7.43,1.67L530.29,177.37z"/>
			</g>
		</g>
		<path stroke="#000000" stroke-width="0.0881" stroke-miterlimit="10" d="M532.46,179.75c-0.37-4.35-3.72-10.5-9.15-16.08
			c-7.78-8-16.86-11.79-20.29-8.46c-3.43,3.33,0.1,12.52,7.88,20.52c5.43,5.59,11.49,9.11,15.83,9.6c0.41-1.01,1.23-2.2,2.37-3.31
			C530.23,180.92,531.43,180.13,532.46,179.75z"/>
		<path stroke="#000000" stroke-width="0.126" stroke-miterlimit="10" d="M509.22,161.59c1.71-1.66,3.41-3.33,5.12-4.99
			c-2.39-1.48-5.23-3.04-8.51-4.49c-3.28-1.45-6.34-2.5-9.05-3.27c0.7,2.73,1.68,5.81,3.05,9.13c1.37,3.31,2.85,6.19,4.28,8.62
			C505.81,164.92,507.52,163.26,509.22,161.59z"/>
		<g id="XMLID_1_">
			<g>
				<path d="M520.32,178.7l4.08,4.4c-0.19,0.81-0.34,1.91-0.23,3.27c0.25,3.08,1.67,5.66,2.44,6.9l-0.38,0.35
					c-1.44-1.25-2.97-2.66-4.54-4.21c-2.36-2.32-2.88-2.67-3.23-3.34C517.01,183.37,519.03,180.3,520.32,178.7z"/>
			</g>
			<g>
				
					<line fill="none" stroke="#000000" stroke-width="0.0787" stroke-miterlimit="10" x1="524.4" y1="183.1" x2="524.46" y2="183.16"/>
				<path fill="none" stroke="#000000" stroke-width="0.0787" stroke-miterlimit="10" d="M524.4,183.1
					c-0.19,0.81-0.34,1.91-0.23,3.27c0.25,3.08,1.67,5.66,2.44,6.9l-0.38,0.35c-1.44-1.25-2.97-2.66-4.54-4.21
					c-2.36-2.32-2.88-2.67-3.23-3.34c-1.44-2.7,0.59-5.78,1.87-7.37L524.4,183.1z"/>
			</g>
		</g>
	</g>
</g>
</svg>
